<?xml version="1.0" encoding="UTF-8"?> <svg xmlns="http://www.w3.org/2000/svg" width="360" height="360" viewBox="0 0 360 360"><defs><style>.cls-1{fill:#4f1717;}.cls-2{fill:#bcbec0;}.cls-3,.cls-6{fill:#fff;}.cls-4{opacity:0.08;}.cls-5{fill:none;}.cls-6{fill-rule:evenodd;}</style></defs><title>Asset 1</title><g id="Layer_2" data-name="Layer 2"><g id="Layer_1-2" data-name="Layer 1"><circle class="cls-1" cx="180" cy="180" r="171.19" transform="translate(-74.56 180) rotate(-45)"></circle><path class="cls-2" d="M180,360A180,180,0,0,1,109.93,14.15a180,180,0,0,1,140.14,331.7A178.87,178.87,0,0,1,180,360Zm0-342.37C90.47,17.63,17.63,90.47,17.63,180S90.47,342.37,180,342.37,342.37,269.53,342.37,180,269.53,17.63,180,17.63Z"></path><circle class="cls-1" cx="180" cy="180" r="171.19" transform="translate(-74.56 180) rotate(-45)"></circle><path d="M180,351.35A171.4,171.4,0,0,1,113.3,22.11,171.4,171.4,0,0,1,246.7,337.89,170.4,170.4,0,0,1,180,351.35ZM180,9C85.7,9,9,85.7,9,180S85.7,351,180,351,351,274.3,351,180,274.3,9,180,9Z"></path><circle class="cls-3" cx="180" cy="180" r="126.88"></circle><path d="M180,307.05a126.64,126.64,0,1,1,49.45-10,126.32,126.32,0,0,1-49.45,10Zm0-253.76A126.71,126.71,0,1,0,306.71,180,126.85,126.85,0,0,0,180,53.29Z"></path><circle class="cls-1" cx="180" cy="180" r="120.27" transform="translate(-20.6 336.71) rotate(-83)"></circle><path class="cls-3" d="M36.42,214.64l2.47,8.52,6.64-1.92-2.75-9.52,3.38-1,4,13.65L27.5,230.93l-3.8-13.15,3.39-1,2.61,9,5.83-1.69-2.46-8.52Z"></path><path class="cls-3" d="M21.88,208.1a48.64,48.64,0,0,1-1.28-6.74c-.5-4.37,0-7.45,1.6-9.82s4.22-4.21,8.18-4.67c4.19-.49,7.45.57,9.72,2.55s3.89,5.67,4.42,10.21a46.74,46.74,0,0,1,.36,5.8Zm19.35-6.57a15.61,15.61,0,0,0-.18-2.37c-.61-5.56-4.08-8.49-10-7.8-5.14.56-7.77,3.89-7.15,9.23a14.27,14.27,0,0,0,.58,2.89Z"></path><path class="cls-3" d="M34.52,159.58c-3-.12-6.7-.25-9.87-.56v.11c2.79,1,5.87,2.25,8.74,3.54L43.25,167,43,170.25l-10.28,2.28c-3.07.65-6.34,1.22-9.32,1.6v.06c3.05.37,6.76.82,10,1.27l9.38,1.32-.34,4L19,177.23l.48-5.64,9.69-2.26c2.82-.6,5.67-1.1,8.32-1.47v-.1c-2.48-.85-5.3-1.89-8-3l-9.12-4,.48-5.57,23.56.63-.35,4.18Z"></path><path class="cls-3" d="M40.32,126.62c7.56,2.26,10.5,8.13,8.65,14.32-1.91,6.39-8,8.94-14.58,7-7-2.08-10.54-7.92-8.63-14.28C27.72,127.08,33.86,124.69,40.32,126.62Zm-4.73,16.91c4.61,1.38,8.95.17,10.13-3.78s-1.85-7.33-6.57-8.74c-4.25-1.27-8.89-.37-10.12,3.75S30.94,142.14,35.59,143.53Z"></path><path class="cls-3" d="M53.94,125.26,33.05,114.42l2.27-4.37,11.76-.75a70.2,70.2,0,0,1,8.85.07l0-.06c-2.93-1.17-5.66-2.51-8.85-4.16l-7.29-3.78,1.84-3.54,20.89,10.85-2.06,4-12,.68a81.58,81.58,0,0,1-9.12,0l0,.14c2.78,1.24,5.57,2.61,9,4.4l7.47,3.87Z"></path><path class="cls-3" d="M53,87.6,49,93l-2.88-2.16L56.79,76.59l2.88,2.16L55.6,84.17l15.95,12L69,99.57Z"></path><path class="cls-3" d="M84.59,64.91c5.47,5.68,5.15,12.25.5,16.73C80.28,86.26,73.73,85.5,69,80.54c-5-5.23-5.27-12.08-.49-16.68C73.39,59.11,79.91,60.05,84.59,64.91ZM72.15,77.32c3.34,3.47,7.72,4.54,10.69,1.68s2-7.3-1.42-10.84c-3.08-3.2-7.57-4.69-10.67-1.71S68.79,73.82,72.15,77.32Z"></path><path class="cls-3" d="M97.12,70.41,84.22,50.73,88.34,48,99,53.14a71,71,0,0,1,7.69,4.39l0,0a97.48,97.48,0,0,1-5.68-8l-4.5-6.86,3.33-2.18,12.91,19.68L109,62.62,98.18,57.31a81.34,81.34,0,0,1-7.94-4.47l-.1.1c1.81,2.45,3.57,5,5.7,8.25l4.61,7Z"></path><path class="cls-3" d="M125.64,48.88a11.93,11.93,0,0,0,5.87-.52c2.56-.93,3.56-2.66,2.91-4.47s-2.07-2.26-5.23-2.27c-4.16,0-7.19-1.08-8.34-4.27-1.31-3.65.73-7.46,5.56-9.2a12.14,12.14,0,0,1,5.69-.79l.22,3.59a10.25,10.25,0,0,0-4.82.55c-2.56.92-3.16,2.66-2.68,4,.61,1.7,2.18,2,5.55,2.11,4.36.06,6.9,1.34,8,4.52,1.29,3.59-.29,7.64-6,9.69a13.44,13.44,0,0,1-6.52.76Z"></path><path class="cls-3" d="M162.54,43.06a15.54,15.54,0,0,1-5.8,2.19c-7.34,1.42-12.69-2.31-14.05-9.37-1.48-7.61,2.94-13.23,10-14.6a13.32,13.32,0,0,1,5.79-.06l-.24,3.53a11.64,11.64,0,0,0-4.7,0c-4.69.91-7.51,4.52-6.44,10.07,1,5.11,4.57,7.76,9.67,6.77a13.16,13.16,0,0,0,4.44-1.71Z"></path><path class="cls-3" d="M171.8,19.52,172,29l9.95-.2-.19-9.43,4.3-.08.46,23.53-4.29.09L182,32.49l-9.95.19.21,10.37-4.29.09-.47-23.53Z"></path><path class="cls-3" d="M215.56,34.76c-1.3,7.78-6.76,11.44-13.13,10.38-6.58-1.09-9.88-6.81-8.75-13.6,1.2-7.16,6.54-11.44,13.09-10.35C213.52,22.31,216.66,28.11,215.56,34.76Zm-17.38-2.57c-.79,4.75,1,8.9,5,9.58s7-2.76,7.85-7.62c.72-4.37-.76-8.87-5-9.57S199,27.4,198.18,32.19Z"></path><path class="cls-3" d="M242.4,44.11c-2.75,7.4-8.81,10-14.86,7.69-6.25-2.32-8.4-8.56-6-15,2.54-6.81,8.6-10,14.82-7.67C242.78,31.51,244.76,37.8,242.4,44.11Zm-16.57-5.83c-1.68,4.51-.75,8.92,3.11,10.36s7.44-1.37,9.16-6c1.55-4.16,1-8.85-3.08-10.35S227.53,33.73,225.83,38.28Z"></path><path class="cls-3" d="M254.65,37.63l3.72,2.14-9.94,17.29,8.39,4.82L255,65l-12.1-7Z"></path><path class="cls-3" d="M290.17,79c-5.41,5.75-12,5.75-16.69,1.33-4.86-4.57-4.42-11.16.29-16.17,5-5.29,11.81-5.87,16.64-1.33C295.4,67.47,294.78,74,290.17,79Zm-13-11.81c-3.3,3.51-4.15,7.94-1.15,10.76s7.39,1.63,10.76-2c3-3.23,4.31-7.79,1.18-10.73S280.48,63.61,277.15,67.14Z"></path><path class="cls-3" d="M304,77.7l8.25,10.83-2.8,2.14-5.65-7.42-5.17,3.94,5.25,6.89-2.78,2.11-5.25-6.89-8,6.07L285.26,92Z"></path><path class="cls-3" d="M322.53,106.27a35.63,35.63,0,0,1,3.1,5.49c1.31,2.86,1.76,4.84,1.43,6.72a5,5,0,0,1-3,4.07,5.42,5.42,0,0,1-6.23-1.44l-.1,0a5.91,5.91,0,0,1-3.28,6.73,6.29,6.29,0,0,1-5.38,0c-2-.92-3.82-3.13-5.63-7.06a42.56,42.56,0,0,1-1.91-4.92Zm-16.47,12.25a13.74,13.74,0,0,0,.85,2.11c1.15,2.5,3.11,4.33,5.74,3.12s2.52-3.8,1.28-6.5l-.89-1.94Zm9.8-4.5.92,2c1.26,2.73,3.21,3.64,5,2.81,2-.93,2.25-2.88,1.11-5.35a11.22,11.22,0,0,0-1.18-2.15Z"></path><path class="cls-3" d="M317.76,138.64l-7-.21-1.15-4.29,24.68,1.15,1.43,5.29L315,154.1l-1.21-4.48,5.88-3.8Zm4.89,5.66,5.12-3.3c1.26-.81,2.71-1.6,3.93-2.29v-.07c-1.41,0-3.09.08-4.54.07l-6.07-.24Z"></path><path class="cls-3" d="M339,156.56l.46,4.28L319.66,163l1,9.62-3.58.38-1.49-13.89Z"></path><path class="cls-3" d="M340.72,178.76l-.13,4.3-19.93-.6-.29,9.67-3.59-.11.41-14Z"></path><path class="cls-3" d="M324.23,211.8l1.51-8.74-6.82-1.17-1.68,9.77-3.48-.6,2.42-14,23.19,4L337,214.55l-3.47-.6,1.6-9.26-6-1-1.51,8.74Z"></path><path class="cls-3" d="M329.77,227.3l2.11-6.37,3.41,1.13-5.58,16.88-3.41-1.13,2.12-6.43-18.92-6.27,1.34-4.08Z"></path><path class="cls-3" d="M84.18,303a10.33,10.33,0,0,0,3.5,4.4c2.53,1.81,5,1.54,6.34-.39,1.26-1.76,1-3.54-.89-6.36-2.31-3.37-3.06-6.4-1.15-9.07,2.14-3,6.19-3.42,9.91-.76a10.64,10.64,0,0,1,3.53,3.95l-2.13,1.53a8.73,8.73,0,0,0-3-3.5c-2.61-1.87-4.72-1-5.66.29-1.28,1.78-.75,3.5,1.16,6.41,2.34,3.57,2.84,6.29.82,9.1s-6.12,4-10.63.75a12.08,12.08,0,0,1-4-4.74Z"></path><path class="cls-3" d="M115,299.45,103.53,320l-2.68-1.5L112.35,298Z"></path><path class="cls-3" d="M113.09,325.07l8.66-21.89,3.12,1.24,2.59,13.84a65.13,65.13,0,0,1,1.08,8.65h.11c.9-3,1.89-5.71,3.24-9.12l3.63-9.15,2.66,1.05-8.67,21.88-2.85-1.13-2.55-13.85a68.31,68.31,0,0,1-1.17-8.92h-.11c-.93,2.82-1.94,5.46-3.38,9.1l-3.7,9.35Z"></path><path class="cls-3" d="M157.07,337.35a14.79,14.79,0,0,1-6.31-.14c-6.5-1.32-10.53-6.41-9-14,1.47-7.26,7.35-11.13,14.51-9.68a12.73,12.73,0,0,1,5.26,2.14L160.3,318a10.83,10.83,0,0,0-4.43-1.9c-5.41-1.1-9.7,1.63-10.93,7.69-1.15,5.68,1.37,9.93,6.95,11.07a12.28,12.28,0,0,0,5.09,0Z"></path><path class="cls-3" d="M179.35,328.57l-9.11-.41-.38,8.47,10.18.47-.11,2.54-13.26-.6,1.07-23.51,12.73.58-.11,2.55-9.66-.44-.34,7.43,9.1.41Z"></path><path class="cls-3" d="M203.29,317.71h-.07l-3.52,2.78-1-2.21,4.44-3.46,2.58-.44,3.87,22.36-2.92.51Z"></path><path class="cls-3" d="M224.42,331.05a12.58,12.58,0,0,0,2.32-.88,8.33,8.33,0,0,0,3.81-3.59,10,10,0,0,0,.95-6.64l-.1,0a6.66,6.66,0,0,1-4.34,4c-3.84,1.28-7.3-.8-8.52-4.48a7.77,7.77,0,0,1,4.8-10.1c4.41-1.47,8.3,1.17,10.16,6.73,1.57,4.71,1.08,8.55-.36,11.31a11.31,11.31,0,0,1-5.3,5,14.11,14.11,0,0,1-2.63,1.06Zm-3.06-12.71c.9,2.69,3.15,4,5.67,3.2a5.1,5.1,0,0,0,3.49-3.67,2.28,2.28,0,0,0-.1-1.18c-1.23-3.68-3.52-6-6.61-5C221.36,312.49,220.34,315.26,221.36,318.34Z"></path><path class="cls-3" d="M248,301.34a12,12,0,0,0-2,1.21,9.09,9.09,0,0,0-3.38,10.74l.06,0a6.79,6.79,0,0,1,3.71-4.87c3.58-1.82,7.43-.49,9.43,3.43,1.9,3.73,1.12,8.44-3.11,10.6s-8.83.27-11.51-5A14.12,14.12,0,0,1,240,306.56a12.44,12.44,0,0,1,4.95-6.29,17.47,17.47,0,0,1,1.91-1.17Zm5.16,12.07c-1.47-2.9-4-3.8-6.53-2.51a5,5,0,0,0-2.68,4.5,2.82,2.82,0,0,0,.32,1.32c1.73,3.32,4.55,5,7.45,3.54C254,319.07,254.61,316.3,253.13,313.41Z"></path><path class="cls-3" d="M265.4,287.11l1.18,1.65,4,22.56L268,313.17l-3.65-22.07,0-.05-9,6.45-1.48-2.07Z"></path><g class="cls-4"><path class="cls-5" d="M151.26,63.18V296.82a120,120,0,0,0,19.09,3.07V60.11A120,120,0,0,0,151.26,63.18Z"></path><path class="cls-5" d="M265.79,95.71V264.29a120.5,120.5,0,0,0,19.09-25.38V121.09A120.5,120.5,0,0,0,265.79,95.71Z"></path><path class="cls-5" d="M74.91,121.46V238.54A120.46,120.46,0,0,0,94,264.08V95.92A120.46,120.46,0,0,0,74.91,121.46Z"></path><path class="cls-5" d="M189.44,60.09V299.91a120,120,0,0,0,19.09-3V63.13A120,120,0,0,0,189.44,60.09Z"></path><path class="cls-5" d="M227.61,69.52v221A119.2,119.2,0,0,0,246.7,280.1V79.9A120,120,0,0,0,227.61,69.52Z"></path><path class="cls-5" d="M113.09,80.05V280a119.83,119.83,0,0,0,19.08,10.44V69.61A119.83,119.83,0,0,0,113.09,80.05Z"></path><path class="cls-3" d="M59.73,180a119.76,119.76,0,0,0,15.18,58.54V121.46A119.76,119.76,0,0,0,59.73,180Z"></path><path class="cls-3" d="M94,95.92V264.08A120.6,120.6,0,0,0,113.09,280V80.05A120.6,120.6,0,0,0,94,95.92Z"></path><path class="cls-3" d="M132.17,69.61V290.39a120.32,120.32,0,0,0,19.09,6.43V63.18A120.32,120.32,0,0,0,132.17,69.61Z"></path><path class="cls-3" d="M180,59.73q-4.87,0-9.65.38V299.89q4.77.38,9.65.38c3.18,0,6.32-.12,9.44-.36V60.09C186.32,59.85,183.18,59.73,180,59.73Z"></path><path class="cls-3" d="M208.53,63.13V296.87a118.74,118.74,0,0,0,19.08-6.39v-221A118.74,118.74,0,0,0,208.53,63.13Z"></path><path class="cls-3" d="M246.7,79.9V280.1a120.68,120.68,0,0,0,19.09-15.81V95.71A120.68,120.68,0,0,0,246.7,79.9Z"></path><path class="cls-3" d="M284.88,238.91a120.44,120.44,0,0,0,0-117.82Z"></path></g><path class="cls-3" d="M211.42,128.4a24.82,24.82,0,0,0-.37,3.77,25.35,25.35,0,0,0,1.35,7.71,29.74,29.74,0,0,1,.83,3.28,15.8,15.8,0,0,1-.76,7.44,26.23,26.23,0,0,0-.69,2.78l-.25,1.45,1.14-.94c4.39-3.61,3.33-8.25,2.21-13.18a41.4,41.4,0,0,1-1-5.92,39.87,39.87,0,0,1,.17-5.87,30.65,30.65,0,0,0,.07-6.26,99.52,99.52,0,0,0-3.4-15.09l0-.15c-1.37-4.5-3.25-10.65-5.39-13.12-1.2-1.39-6.86-5.58-10.57-5.58a4.44,4.44,0,0,0-.84.08c-1.08.21-1.71.58-2,1.18-.39.88.21,1.86.84,2.9.72,1.19,1.47,2.42.79,3.4l-.22.32.22.32a4.91,4.91,0,0,0,4.27,2.16h.58l0-.53a2.22,2.22,0,0,0-1.43-2.13c-.48-.26-.86-.48-1-1a1.91,1.91,0,0,1,.11-.93,3.33,3.33,0,0,0,.15-1.42,2.32,2.32,0,0,0-1-1.43l-.26-.22c2.45.56,6.56,1.92,8.74,5a13.79,13.79,0,0,1,1.58,4c.23.78.47,1.58.77,2.42s.66,1.84,1,2.81c2,5.58,4.59,12.53,4.75,18.8A23,23,0,0,1,211.42,128.4Z"></path><path class="cls-3" d="M162.08,138.36c1.43,0,2.46-1.14,3.37-2.15a8.64,8.64,0,0,1,1.2-1.17,20,20,0,0,1,2.34-1.32,13.18,13.18,0,0,0,3.3-2.12,14.74,14.74,0,0,0,2.31-3.28,21.65,21.65,0,0,1,1.85-2.82A10.1,10.1,0,0,1,178,124a8.42,8.42,0,0,0,2.42-2.77,12.35,12.35,0,0,0,.75-4.51,18.9,18.9,0,0,1,.26-2.87,14.13,14.13,0,0,1,2.24-4.85,20.5,20.5,0,0,0,2-3.81.63.63,0,0,0,.26-.53.75.75,0,0,0-.82-.68l-.2,0-.23,0-.13.18c-.45.63-.91,1.23-1.37,1.83-1.81,2.36-3.52,4.59-4,8.09a18.6,18.6,0,0,0-.16,2.24,10.75,10.75,0,0,1-.54,3.69,6.62,6.62,0,0,1-1.88,2.1,14.31,14.31,0,0,0-1.67,1.63c-.74.94-1.38,1.94-2,2.91a14.82,14.82,0,0,1-3.22,4,10.13,10.13,0,0,1-2.25,1.14c-.51.21-1,.41-1.46.65,1.49-1.88,2.39-4.07.08-6.55a3.89,3.89,0,0,0-.21-3.21,2.29,2.29,0,0,0-2.06-1.09l-.71,0,.18,1.08a21.25,21.25,0,0,0,2,7,8.4,8.4,0,0,1-2.16,2.34c-1.44,1.22-2.93,2.48-3.09,5.11l0,.31.26.18A3.28,3.28,0,0,0,162.08,138.36Z"></path><path class="cls-3" d="M192.25,113.53a9.15,9.15,0,0,0-4.13,1c-2.18,1.08-4,4.15-4.18,7s.91,4.48,2.06,6.15a14,14,0,0,1,1.61,2.8c.19.47.35.94.51,1.4.58,1.69,1.14,3.3,2.68,4a5.73,5.73,0,0,0,2.12.36c1.13,0,1.72.13,2.05.69a8.15,8.15,0,0,1-1.83,1c-1.59.71-3.57,1.61-3.39,4.48l0,.67.65-.17a3.45,3.45,0,0,0,1.84-1.53,4.64,4.64,0,0,1,1.43-1.43,6.61,6.61,0,0,1,1.45-.55c1-.31,2.22-.65,2.22-2.35,0-2.16-2.2-2.68-4.33-3.17-.59-.14-1.2-.28-1.75-.46a4.15,4.15,0,0,1-1-2.25,11.37,11.37,0,0,0-.45-1.57,15.92,15.92,0,0,0-2-3.38,10.4,10.4,0,0,1-1.41-2.39,6.32,6.32,0,0,1,2.21-6.65,6.49,6.49,0,0,1,3.71-1.26c2.24,0,4.29,1.3,6.47,2.68a26.15,26.15,0,0,0,4.07,2.26l1.87.76-1.23-1.6C201.16,116.86,196.93,113.53,192.25,113.53Z"></path><path class="cls-3" d="M274.81,115.41l-.61,0a19.61,19.61,0,0,0-11.44,4.77c-2.13,2.08-3.16,4.89-4.16,7.61-.9,2.46-1.76,4.78-3.35,6.44a31.9,31.9,0,0,1-2.79,2.39c-1.17.93-2.5,2-3.73,3.16l-1.07,1c-1.77,1.7-3.6,3.45-5.19,4.75a15.27,15.27,0,0,1-3,1.74,19.85,19.85,0,0,0-2.53,1.38c-.58.4-1.1.81-1.62,1.21a14.39,14.39,0,0,1-2.43,1.66,8.16,8.16,0,0,1-1.65.53,8.85,8.85,0,0,0-2,.68,12,12,0,0,0-2.86,2.51c-1.58,1.68-3.22,3.42-5.37,3.48h0a3.21,3.21,0,0,1-1.22-.37,3.91,3.91,0,0,0-1.69-.48,2.43,2.43,0,0,0-.87.16l-.65.25.4.58c1.12,1.59,2.36,2.36,3.79,2.36,2.23,0,4.33-1.93,6.37-3.79a17.63,17.63,0,0,1,3.14-2.52,7.62,7.62,0,0,1,2-.63,8.56,8.56,0,0,0,1.87-.57,17.2,17.2,0,0,0,3.74-2.65c1.51-1.29,2.93-2.5,4.77-2.62h.21l.15-.16c1.66-1.77,3.39-3.3,5.06-4.78.63-.56,1.29-1.14,1.93-1.73.84-.76,1.79-1.52,2.81-2.33a36,36,0,0,0,4.49-4,21.81,21.81,0,0,0,3.57-6.95c1-2.64,1.92-5.13,3.66-6.81,2-2,5.21-3,7.77-3.75l.55-.13c.85-.19,2.13-.47,2.48-1.69l.18-.64Z"></path><path class="cls-3" d="M146.15,183.81c3.47,0,6.44-.76,8.18-2.07l.11-.09-.46-.91-.13,0a23.05,23.05,0,0,1-5.79.64c-4.54,0-9.84-1-10.74-3.22-1.07-2.6-.3-8.51,0-11v-.06a57.25,57.25,0,0,1,4.79-16.52c.77-1.5,2.41-2.78,4-4,.47-.37,1-.75,1.43-1.14a19.83,19.83,0,0,1,2.05-1.41,9.35,9.35,0,0,0,3.15-2.6c2.21-3.75-.11-5.38-2-6.7-.36-.25-.73-.52-1.06-.79-2.52-2-4.69-5.67-3.22-9.79,1.06-3,4-3.94,7.07-5,1.1-.37,2.23-.75,3.29-1.23l1.67-.76-1.81-.28a11.87,11.87,0,0,0-2-.16A10.8,10.8,0,0,0,144.9,123a10.44,10.44,0,0,0,1.41,11.23,11,11,0,0,0,2.12,1.68c1.1.75,2.46,1.68,2.61,2.43.42,2.19-1.35,3.13-3.23,4.13a13.08,13.08,0,0,0-1.9,1.14c-6.34,5-7.46,9.45-9.68,18.42l-.19.76c-2.06,8.25-2.28,14-.68,17.08C136.76,182.57,141.94,183.81,146.15,183.81Z"></path><path class="cls-3" d="M178.59,136.47l-.3.05-.11.28a20.82,20.82,0,0,1-3.67,5.19c-3.33,3.85-6.78,7.83-3.34,14.87l.06.12,1-.21v-.13c0-1.13,0-2.14,0-3a23.22,23.22,0,0,1,.18-3.67c.46-2.81,2.15-4.59,3.79-6.31s3.34-3.52,3.72-6.29l.08-.6-.57,0,0,0A1,1,0,0,0,178.59,136.47Z"></path><path class="cls-3" d="M199.84,154.26c-.92-.76-6.86-4.36-8-4.48a5.44,5.44,0,0,0-.57,0c-2.66,0-4,2-5.15,3.78a15.26,15.26,0,0,1-1.27,1.75,40.67,40.67,0,0,1-6.92,5.73c-1.17.8-2.45,1.56-3.69,2.29-4.48,2.66-9.12,5.4-9.62,10.93l-.1,1.15,1-.64a8.43,8.43,0,0,0,2.53-3.22,10.93,10.93,0,0,1,1.44-2.19,11.73,11.73,0,0,1,1.53-1.35l.24.49c.75,1.55.35,3.11-.08,4.76s-.82,3.23-.18,4.88c.74,1.93,4.6,3.54,7.71,4.84l0,0,1.25.53a38.3,38.3,0,0,1,8.57,5,10.7,10.7,0,0,1,1.95,2.5,14.5,14.5,0,0,0,.89,1.3,14.93,14.93,0,0,0,2.13,2,7.62,7.62,0,0,1,2.85,3.39c.81,2.66-.28,5.34-1.67,8.32l-.78,1.66,1.56-1c3.47-2.14,4.27-7.83,2.63-11.12a8.91,8.91,0,0,0-2.17-2.33c-.53-.46-1.07-.93-1.56-1.44a13.87,13.87,0,0,1-1.47-1.94,17.4,17.4,0,0,0-1.67-2.17,34.15,34.15,0,0,0-9.13-5.93c-.72-.33-1.55-.65-2.44-1-2.79-1.09-6.28-2.45-6.69-4.2a7.36,7.36,0,0,1,.36-3.41c.51-1.89,1.07-4-1.35-5.41l-.38-.22c1.15-.78,2.45-1.5,3.82-2.25a41.06,41.06,0,0,0,5.83-3.65l.51-.4a49.14,49.14,0,0,0,4.87-4.24,20.27,20.27,0,0,0,1.58-2c.92-1.26,2.06-2.83,2.92-2.92a5.13,5.13,0,0,1,2.55,1.14l0,0c.26.17.49.33.71.45,4.94,2.9,7.45,5.51,7.47,7.76a4.74,4.74,0,0,1-.91,2.19,9.59,9.59,0,0,0-1,2c-1.95,6.18-.7,16.16,0,21.53,0,.26.06.52.09.8a14.9,14.9,0,0,0,1.43,5.7l1,1.67,0-1.94a90.88,90.88,0,0,0-.65-10.1c-.57-5.63-1.15-11.46.15-16.39a8.24,8.24,0,0,1,1-2.18,6.18,6.18,0,0,0,1.18-3.55C204.06,158.61,201.77,155.84,199.84,154.26Z"></path><path class="cls-3" d="M249.63,150.74h-.13c-4.51.81-6.78,3.49-9.18,6.33-.71.85-1.45,1.72-2.25,2.54a58.88,58.88,0,0,1-11.74,8.86c-1.06.6-2.33,1.19-3.66,1.81-3.9,1.83-8.32,3.9-9.41,7a15.59,15.59,0,0,0-.51,3.91c-.06,1-.12,2-.25,3s-.31,2.23-.49,3.34-.34,2.16-.48,3.19c-.33,2.63-1.36,11.44-.72,14.7a51,51,0,0,0,1.55,5.61,27.37,27.37,0,0,1,1.59,6.9,20.28,20.28,0,0,1-.94,6.69,15.34,15.34,0,0,0-.75,6.43,9.49,9.49,0,0,0,1,2.71,6.59,6.59,0,0,1,.91,2.56,15.34,15.34,0,0,1-1.36,6.18c-.93,2.55-1.89,5.18-1.54,8.37v.08c.07.7.3,2.84,1.84,3.29l.57.17.12-.59a15.86,15.86,0,0,0,.11-4.43,14,14,0,0,1,.12-4.27,16.21,16.21,0,0,1,1.26-3.25,11.87,11.87,0,0,0,1.42-4.34,10.24,10.24,0,0,0-1.05-4.77,11.2,11.2,0,0,1-.89-2.83,16.91,16.91,0,0,1,.78-6.09,21.59,21.59,0,0,0,.92-7.2,27.69,27.69,0,0,0-1.65-6.32,29.65,29.65,0,0,1-1.5-5.33,40.12,40.12,0,0,1,.17-7.63h-.17l.17,0c0-.34,0-.65.07-.93.16-2,.58-4.63,1-7.19.37-2.31.76-4.7.94-6.6.06-.67.08-1.39.1-2a8.7,8.7,0,0,1,.33-2.86c.75-1.54,4.42-3.88,7.48-5.31a51.18,51.18,0,0,0,15.89-11c.88-.88,1.68-1.75,2.47-2.61,2.52-2.74,4.69-5.1,8.23-6.46l.29-.11.05-.31,0-.09a.69.69,0,0,0,0-.71A.89.89,0,0,0,249.63,150.74Z"></path><path class="cls-3" d="M133.15,201.94c3.73-5.62,7.09-9.34,11.25-12.45a3.6,3.6,0,0,1,.36-.22c.91-.52,1.6-1,1.52-1.63,0-.26-.2-.62-.84-.81l-.18-.06-.18.07c-6.12,2.36-9.94,7.49-13.32,12.55-.92,1.37-1.76,2.88-2.58,4.35a42,42,0,0,1-4.16,6.49,15.58,15.58,0,0,1-4.18,3.1,22.46,22.46,0,0,0-3.26,2.16c-2.88,2.45-4.9,5.6-6.85,8.65-2.12,3.33-4.13,6.47-7.16,8.76A30.75,30.75,0,0,1,95.26,237l-1.24.46-.59.22c-3.31,1.23-7.05,2.61-7.5,7l-.11,1,.9-.45a9.68,9.68,0,0,0,2.33-1.9,12,12,0,0,1,2.06-1.75,35,35,0,0,1,6.54-2.87,27.23,27.23,0,0,0,8-4c3.1-2.47,5.26-5.83,7.35-9.09s4.29-6.68,7.4-9a20.77,20.77,0,0,1,2-1.3,20.35,20.35,0,0,0,2.38-1.62c2.75-2.33,4.55-5.41,6.29-8.38C131.8,204.11,132.45,203,133.15,201.94Z"></path><path class="cls-3" d="M191,235.41a39.15,39.15,0,0,0-5,.46,36.7,36.7,0,0,1-4.32.4c-1.61,0-2.55-.32-2.94-1-1.1-2,.17-4.87,1.51-7.93a24.8,24.8,0,0,0,2.19-6.5,20.67,20.67,0,0,0-.25-5.23,15.6,15.6,0,0,1-.23-3.72,14.22,14.22,0,0,1,1.39-4.17,11.46,11.46,0,0,1,1.55-2.06c.9-1,1.75-2,1.66-3.09-.18-2.07-3.46-3.26-5.63-4.05h0l-.73-.27c-1.31-.51-2.52-.85-3.69-1.18a35,35,0,0,1-3.8-1.24,19.31,19.31,0,0,1-3.22-2c-2.15-1.49-4.37-3-6.29-3A3.06,3.06,0,0,0,162,191c-4.56,1.74-7.67,5.37-10.68,8.88a49.74,49.74,0,0,1-5,5.26A58,58,0,0,1,134.87,213a8,8,0,0,1-1,.38c-1.13.4-2.54.9-2.95,2.39l-.26.94.94-.27c10.07-3,17.64-10.93,23.72-17.34l.42-.44c1.78-1.89,4.76-5,7-5.19,1.37-.09,2.82.88,4.11,1.75l.89.58a42.77,42.77,0,0,0,8.23,3.67,35.74,35.74,0,0,1,7.82,3.55c-.33.59-.75,1.21-1.19,1.86a14.59,14.59,0,0,0-3,6.85,16.72,16.72,0,0,0,.23,4.2,17.94,17.94,0,0,1,.25,4.52,21.34,21.34,0,0,1-2.16,6.45c-1.3,2.84-2.53,5.53-1.95,8.48s3,3.43,4.73,3.43a28.31,28.31,0,0,0,4.48-.52,25,25,0,0,1,5.1-.53,7.83,7.83,0,0,1,1.63.29,6.55,6.55,0,0,0,1.75.3,3.37,3.37,0,0,0,2-.7l.54-.39-.49-.45C194.72,235.85,193.2,235.41,191,235.41Z"></path><path class="cls-6" d="M62,264.08a3.42,3.42,0,1,1-3.42-3.42A3.42,3.42,0,0,1,62,264.08Z"></path><path class="cls-6" d="M307.12,264.08a3.43,3.43,0,1,1-3.42-3.42A3.42,3.42,0,0,1,307.12,264.08Z"></path></g></g></svg> 