<svg width="235" height="160" viewBox="0 0 235 160" fill="none" xmlns="http://www.w3.org/2000/svg">
    <g clip-path="url(#clip0_619_2407)">
    <path d="M25.2096 63.9413L171.646 1.65619C178.627 -1.31026 185.87 -0.188672 187.778 4.2977L220.922 82.5472C222.82 87.0336 218.627 93.1027 211.646 96.0797L65.2096 158.365C58.2284 161.331 50.9538 160.147 49.0565 155.65L15.9014 77.4004C14.0041 72.914 18.218 66.9078 25.2096 63.9413Z" fill="#54B948"/>
    <path d="M220.922 82.5471L218.197 76.1216L206.195 81.1006C207.201 83.6268 207.474 85.3564 207.086 86.2998C206.771 87.0964 205.849 87.8721 204.371 88.7002C202.914 89.4444 200.472 90.6708 195.859 92.631C192.138 94.2138 189.486 95.2096 187.914 95.6813C186.342 96.153 185.147 96.2683 184.245 95.9958C183.291 95.7442 182.432 95.1258 181.688 93.9937C180.87 92.8302 179.864 90.7652 178.585 87.7568C177.317 84.7484 176.908 83.6687 176.593 82.1593C176.363 80.6813 176.384 79.4864 176.866 78.6268C177.264 77.8616 178.124 77.1069 179.549 76.2998C180.922 75.5136 183.511 74.3501 187.285 72.7463C191.059 71.1425 193.899 69.7694 195.88 69.1928C197.841 68.5534 199.14 68.5534 199.769 68.8155C200.22 68.9518 201.006 69.4654 201.31 69.8637C201.614 70.262 202.17 70.7232 202.851 72.0126L214.392 67.1698L211.258 59.7694C210.692 58.9832 210.126 58.2809 209.832 58.0084C208.711 56.9392 207.358 56.2683 205.797 55.9539L185.859 10.3878C184.885 8.08173 182.568 6.64568 179.581 6.20542C176.782 5.83855 173.323 6.29976 169.958 7.72534L86.8972 43.0608L60.4716 54.2977L58.5744 49.7274L25.1991 63.9203C18.218 66.8868 13.9937 72.8931 15.8909 77.3794L26.4675 102.358L26.5932 102.652C27.9874 105.964 29.2348 108.291 31.8134 109.927C33.4591 110.975 35.0628 111.478 36.6142 111.457L52.4633 148.868C53.4381 151.174 55.7547 152.61 58.8155 153.029C61.6457 153.459 65.0419 153.029 68.3962 151.604L174.004 106.813C174.182 106.981 174.35 107.138 174.528 107.275C175.797 108.249 177.61 108.815 179.361 108.92C179.843 108.952 181.384 108.616 183.061 108.197L211.625 96.0482C218.606 93.0817 222.799 87.0021 220.901 82.5157L220.922 82.5471ZM87.6519 44.8532L170.723 9.52828L168.26 10.5765C171.289 9.28718 176.792 7.88257 179.266 8.22848C181.583 8.56391 183.354 9.61213 184.025 11.1949L203.092 55.87C201.551 56.0272 199.633 56.436 197.799 57.0126C195.367 57.7778 191.656 59.2348 186.551 61.4046C177.013 65.4612 170.597 68.5325 167.296 70.7337C166.331 70.2411 165.272 69.9161 164.119 69.7798C162.358 69.6436 160.22 69.9685 157.736 70.8385C155.231 71.6352 150.44 73.5849 143.407 76.5723C135.042 80.1887 130.252 82.1279 129.078 82.3061C127.725 82.5681 126.667 81.8763 125.954 80.3564C125.22 78.7736 125.377 77.5157 126.415 76.5828C127.484 75.7128 130.797 73.9413 136.446 71.2998C141.059 69.1404 144.057 67.8197 145.545 67.1907C147.054 66.6352 148.113 66.3627 148.889 66.4465C149.455 66.5513 149.895 66.7191 150.304 67.1174C150.681 67.4633 151.143 68.2809 151.771 69.4654L164.518 63.5115C164.098 62.4528 163.784 61.7819 163.616 61.4151C161.771 57.4633 159.748 55.0105 157.463 54.0775C155.241 53.1132 152.002 53.3019 147.778 54.5283C145.031 55.4402 140.514 57.327 134.203 60.283C125.22 64.4759 119.298 67.4738 116.583 69.2557C116.373 69.392 116.174 69.5388 115.975 69.6855C115.503 69.5597 115.01 69.4759 114.507 69.413C112.746 69.2767 110.671 69.5807 108.166 70.3773C105.681 71.2369 100.901 73.1761 93.805 76.1949C85.3773 79.8323 80.5974 81.7715 79.4758 81.9287C78.0607 82.2222 77.002 81.5304 76.2893 80.0105C75.5555 78.4277 75.7023 77.1698 76.8134 76.2159C77.8826 75.3459 81.1949 73.5744 86.7819 70.9643C91.457 68.784 94.4863 67.3585 95.9434 66.8344C97.4528 66.2788 98.5744 65.9748 99.2872 66.0901C99.8847 66.1111 100.356 66.3312 100.702 66.761C101.08 67.1069 101.572 67.8406 102.138 69.0566L114.948 63.0713C114.497 62.0964 114.182 61.4255 114.015 61.0692C112.18 57.1174 110.147 54.6645 107.924 53.7002C105.639 52.7673 102.379 52.8931 98.1761 54.1824C95.4612 55.0105 90.8805 56.9287 84.5073 59.9056C75.5241 64.0985 69.696 67.1279 66.9182 68.9413C64.2033 70.7232 62.5052 72.7778 61.8134 74.958C60.8909 77.9035 61.5723 81.74 63.8574 86.6562C63.9413 86.8344 64.0251 86.9916 64.0985 87.1698L38.1027 98.1341L35.4402 91.8134L56.2473 82.8092L52.1069 72.935L31.2997 81.9392L28.6792 75.6918L63.2599 61.1111L61.1949 56.132L87.631 44.8847L87.6519 44.8532ZM67.631 149.769C64.6016 151.059 61.5932 151.478 59.0775 151.069C56.761 150.734 55.0209 149.759 54.3186 148.103L38.6582 111.132C38.8574 111.069 39.0461 110.996 39.2348 110.922L74.675 95.5136C75.0104 95.4926 75.3459 95.4612 75.6918 95.3983C77.6205 95.0943 80.2515 94.2348 83.4591 92.8826C85.1257 92.1803 88.6373 90.6813 94.1509 88.4067C99.5387 86.1845 103.029 84.7798 104.665 84.0146C106.792 83.0188 108.302 82.61 109.161 82.7253C110.084 82.8092 110.818 83.5849 111.415 84.8532C112.233 86.6142 112.264 87.935 111.488 88.8155C110.996 89.3396 110.168 89.9476 109.046 90.545C107.987 91.1111 104.644 92.6729 99.088 95.3459C93.7211 97.7777 90.5345 99.1928 89.5387 99.5912C88.4486 99.9476 87.5786 100.136 86.7085 100.021C85.5765 99.8113 84.4444 98.6373 83.5115 96.478L70.7652 102.432L71.6981 104.434C73.1656 107.6 74.5492 109.769 75.8595 111.006C77.1698 112.243 78.8888 112.924 80.8909 113.092C82.893 113.26 85.545 112.767 88.784 111.625C92.044 110.545 96.8972 108.428 103.396 105.388C111.163 101.761 116.446 99.1404 119.182 97.5681C120.252 96.9497 121.184 96.3312 122.002 95.7232C123.029 95.9224 124.14 95.9119 125.346 95.7232C127.275 95.4193 129.843 94.5807 133.05 93.2285C134.717 92.5262 138.291 90.9958 143.836 88.784C149.172 86.5933 152.62 85.1258 154.266 84.3606C156.394 83.3648 157.904 82.9559 158.795 83.1341C159.665 83.2495 160.419 83.9308 161.017 85.2096C161.834 86.9706 161.866 88.2914 161.09 89.1719C160.535 89.7274 159.769 90.304 158.648 90.9014C157.589 91.478 154.245 93.0293 148.753 95.6708C143.386 98.1027 140.199 99.5178 139.14 99.9371C138.145 100.325 137.18 100.482 136.373 100.346C135.178 100.168 134.109 98.9622 133.113 96.8344L120.367 102.788L121.331 104.853C122.778 107.956 124.151 110.126 125.524 111.331C126.834 112.568 128.501 113.27 130.587 113.48C132.558 113.595 135.147 113.124 138.449 111.95C141.709 110.87 146.593 108.815 153.082 105.776C160.734 102.201 165.996 99.6016 168.721 97.9559C169.644 100.031 170.367 101.593 170.933 102.631C171.457 103.585 171.981 104.402 172.526 105.115L67.6205 149.748L67.631 149.769Z" fill="white"/>
    <path d="M15.6499 133.805C7.0021 133.805 0 129.13 0 120.849C0 112.568 7.01258 108.92 15.6499 108.92H219.161C227.809 108.92 234.822 112.568 234.822 120.849C234.822 128.606 228.669 132.946 220.786 133.721L15.6499 133.805Z" fill="#231F20"/>
    <path fill-rule="evenodd" clip-rule="evenodd" d="M138.249 124.308L137.159 125.451C136.625 125.241 136.111 124.937 135.618 124.57C135.241 124.853 134.832 125.052 134.403 125.189C133.973 125.325 133.459 125.388 132.872 125.388C131.698 125.388 130.818 125.115 130.22 124.581C129.759 124.161 129.528 123.679 129.528 123.134C129.528 122.642 129.707 122.191 130.073 121.803C130.43 121.405 130.975 121.069 131.688 120.776C131.363 120.461 131.122 120.168 130.964 119.885C130.797 119.602 130.723 119.329 130.723 119.078C130.723 118.606 130.954 118.218 131.405 117.883C131.866 117.558 132.505 117.39 133.354 117.39C134.203 117.39 134.801 117.558 135.262 117.904C135.723 118.249 135.954 118.658 135.954 119.151C135.954 119.465 135.839 119.759 135.618 120.042C135.398 120.325 134.937 120.639 134.256 120.996L135.556 122.421C135.713 122.201 135.839 121.908 135.954 121.551L137.589 121.855C137.421 122.327 137.285 122.673 137.159 122.893C137.044 123.113 136.908 123.302 136.772 123.449C136.971 123.606 137.233 123.774 137.558 123.962C137.872 124.151 138.113 124.266 138.26 124.329L138.249 124.308ZM133.333 120.105L133.816 119.801C134.172 119.57 134.35 119.35 134.35 119.12C134.35 118.931 134.266 118.763 134.088 118.637C133.92 118.501 133.679 118.438 133.386 118.438C133.092 118.438 132.872 118.501 132.715 118.616C132.558 118.732 132.474 118.868 132.474 119.025C132.474 119.203 132.61 119.434 132.883 119.686L133.323 120.105H133.333ZM132.631 121.719C132.212 121.887 131.908 122.096 131.698 122.338C131.488 122.579 131.394 122.83 131.394 123.082C131.394 123.407 131.52 123.658 131.772 123.868C132.023 124.067 132.369 124.172 132.788 124.172C133.071 124.172 133.344 124.13 133.606 124.036C133.868 123.941 134.151 123.795 134.455 123.585L132.621 121.719H132.631Z" fill="white"/>
    <path d="M7.89289 120.335H13.5009V121.96H7.90337V123.134H13.9097V125.094H7.28492C6.87611 125.094 6.5302 124.895 6.25767 124.497C5.98513 124.099 5.83838 123.606 5.83838 123.04V119.319C5.83838 118.742 5.97465 118.26 6.25767 117.862C6.5302 117.463 6.87611 117.264 7.28492 117.264H13.8887V119.214H7.89289V120.346V120.335Z" fill="white"/>
    <path fill-rule="evenodd" clip-rule="evenodd" d="M21.2265 125.105H14.6018V119.214H14.5913V117.264H21.237C21.6249 117.264 21.9603 117.463 22.2433 117.862C22.5263 118.26 22.6731 118.742 22.6731 119.319V123.04C22.6731 123.616 22.5263 124.109 22.2433 124.497C21.9708 124.895 21.6353 125.094 21.237 125.094L21.2265 125.105ZM20.5871 123.155V119.214H16.6563V123.155H20.5871Z" fill="white"/>
    <path d="M32.0022 117.254H23.2705V125.094H25.346V119.203H27.3166V125.094H29.4026V119.203H31.3732V125.094H33.4487V119.308C33.4487 118.732 33.3124 118.249 33.0294 117.851C32.7464 117.453 32.411 117.254 32.0126 117.254H32.0022Z" fill="white"/>
    <path fill-rule="evenodd" clip-rule="evenodd" d="M40.6917 117.254C41.1005 117.254 41.4464 117.453 41.7189 117.851C42.0019 118.249 42.1487 118.732 42.1487 119.308V123.029C42.1487 123.606 42.0019 124.099 41.7189 124.486C41.4464 124.885 41.1005 125.084 40.6917 125.084H35.5344C35.1256 125.084 34.7797 124.885 34.5072 124.486C34.2242 124.088 34.0879 123.595 34.0879 123.029V119.308C34.0879 118.732 34.2242 118.249 34.5072 117.851C34.7797 117.453 35.1256 117.254 35.5344 117.254H40.6917ZM40.0627 123.145V119.203H36.1529V123.145H40.0627Z" fill="white"/>
    <path d="M48.8049 125.105H50.8909V119.319C50.8909 118.742 50.7441 118.249 50.4611 117.862C50.1781 117.463 49.8531 117.264 49.4548 117.264H42.8301V125.105H44.8846V119.214H48.8049V125.105Z" fill="white"/>
    <path d="M59.5704 117.254V119.214H56.7088V125.105H54.4132V119.214H51.562V117.254H59.5704Z" fill="white"/>
    <path fill-rule="evenodd" clip-rule="evenodd" d="M66.8342 117.254C67.243 117.254 67.589 117.453 67.8615 117.851C68.1445 118.249 68.2913 118.732 68.2913 119.308V123.029C68.2913 123.606 68.1445 124.099 67.8615 124.486C67.589 124.885 67.243 125.084 66.8342 125.084H61.677C61.2682 125.084 60.9223 124.885 60.6498 124.486C60.3667 124.088 60.2305 123.595 60.2305 123.029V119.308C60.2305 118.732 60.3667 118.249 60.6498 117.851C60.9223 117.453 61.2682 117.254 61.677 117.254H66.8342ZM66.2053 123.145V119.203H62.2955V123.145H66.2053Z" fill="white"/>
    <path d="M74.9582 125.105H77.0442V119.319C77.0442 118.742 76.8974 118.249 76.6144 117.862C76.3314 117.463 75.996 117.264 75.6081 117.264H68.9834V125.105H71.0379V119.214H74.9582V125.105Z" fill="white"/>
    <path d="M88.9726 121.96H84.6854C84.2242 121.866 83.8468 121.625 83.5533 121.247C83.2598 120.87 83.1235 120.398 83.1235 119.832V119.308C83.1235 118.753 83.2703 118.27 83.5638 117.862C83.8783 117.453 84.2451 117.243 84.6644 117.243H91.2472V119.109H85.3562V120.241H89.6434C90.1047 120.304 90.4925 120.493 90.7965 120.807C91.1005 121.122 91.2472 121.551 91.2472 122.117V123.04C91.2472 123.606 91.09 124.088 90.786 124.497C90.482 124.895 90.1151 125.094 89.6749 125.094H83.1235V123.26H88.9936V121.95L88.9726 121.96Z" fill="#FDBE57"/>
    <path fill-rule="evenodd" clip-rule="evenodd" d="M97.7462 120.461V119.151H94.1823V120.461H97.7462ZM94.1718 122.306V125.105H91.8657V117.264H98.459C98.8993 117.264 99.2766 117.463 99.6016 117.862C99.916 118.27 100.084 118.753 100.084 119.308V120.241C100.084 120.807 99.9265 121.289 99.6016 121.688C99.2871 122.086 98.9097 122.296 98.459 122.306H94.1718Z" fill="#FDBE57"/>
    <path fill-rule="evenodd" clip-rule="evenodd" d="M107.264 117.254C107.673 117.254 108.019 117.453 108.291 117.851C108.574 118.249 108.721 118.732 108.721 119.308V123.029C108.721 123.606 108.574 124.099 108.291 124.486C108.019 124.885 107.673 125.084 107.264 125.084H102.107C101.698 125.084 101.352 124.885 101.079 124.486C100.807 124.088 100.66 123.595 100.66 123.029V119.308C100.66 118.732 100.796 118.249 101.079 117.851C101.352 117.453 101.698 117.254 102.107 117.254H107.264ZM106.635 123.145V119.203H102.725V123.145H106.635Z" fill="#FDBE57"/>
    <path d="M111.499 119.151V125.105H109.35V117.264H115.681C116.111 117.264 116.457 117.463 116.73 117.862C117.023 118.27 117.17 118.763 117.17 119.319V120.241C117.17 120.482 117.149 120.702 117.096 120.912C117.044 121.122 116.971 121.321 116.866 121.499C116.761 121.677 116.614 121.824 116.447 121.95C116.268 122.075 116.059 122.159 115.818 122.212L117.369 125.126H115.094L112.977 120.472H115.031V119.161H111.488L111.499 119.151Z" fill="#FDBE57"/>
    <path d="M126.143 117.254V119.214H123.281V125.105H120.985V119.214H118.134V117.254H126.143Z" fill="#FDBE57"/>
    <path d="M149.193 121.96H144.906C144.444 121.866 144.067 121.625 143.774 121.247C143.48 120.87 143.344 120.398 143.344 119.832V119.308C143.344 118.753 143.49 118.27 143.784 117.862C144.098 117.453 144.465 117.243 144.885 117.243H151.467V119.109H145.576V120.241H149.864C150.325 120.304 150.713 120.493 151.017 120.807C151.321 121.122 151.467 121.551 151.467 122.117V123.04C151.467 123.606 151.31 124.088 151.006 124.497C150.702 124.895 150.335 125.094 149.895 125.094H143.344V123.26H149.214V121.95L149.193 121.96Z" fill="#FDBE57"/>
    <path fill-rule="evenodd" clip-rule="evenodd" d="M158.711 117.254C159.12 117.254 159.465 117.453 159.738 117.851C160.021 118.249 160.168 118.732 160.168 119.308V123.029C160.168 123.606 160.021 124.099 159.738 124.486C159.465 124.885 159.12 125.084 158.711 125.084H153.553C153.145 125.084 152.799 124.885 152.526 124.486C152.254 124.088 152.107 123.595 152.107 123.029V119.308C152.107 118.732 152.243 118.249 152.526 117.851C152.799 117.453 153.145 117.254 153.553 117.254H158.711ZM158.082 123.145V119.203H154.172V123.145H158.082Z" fill="#FDBE57"/>
    <path d="M162.904 123.155V119.214H168.899V117.264H162.285C161.876 117.264 161.53 117.463 161.258 117.862C160.985 118.26 160.839 118.753 160.839 119.319V123.04C160.839 123.616 160.975 124.099 161.258 124.497C161.53 124.895 161.876 125.094 162.285 125.094H168.889V123.145H162.914L162.904 123.155Z" fill="#FDBE57"/>
    <path d="M171.677 125.105V117.254H169.539V125.105H171.677Z" fill="#FDBE57"/>
    <path fill-rule="evenodd" clip-rule="evenodd" d="M175.587 120.933H178.239V119.214H174.35V120.933H175.587ZM174.35 122.6V125.105H172.275V119.319C172.275 118.742 172.411 118.26 172.694 117.862C172.977 117.463 173.312 117.264 173.721 117.264H178.868C179.256 117.264 179.591 117.463 179.874 117.862C180.147 118.249 180.294 118.7 180.294 119.235V125.105H178.239V122.6H174.35Z" fill="#FDBE57"/>
    <path d="M186.897 123.113H189.015V125.105H182.421C182.023 125.105 181.677 124.895 181.394 124.486C181.122 124.088 180.975 123.585 180.975 122.998V117.243H183.071V123.113H186.897Z" fill="#FDBE57"/>
    <path d="M197.316 123.155V119.214H203.312V117.264H196.698C196.289 117.264 195.943 117.463 195.671 117.862C195.398 118.26 195.251 118.753 195.251 119.319V123.04C195.251 123.616 195.388 124.099 195.671 124.497C195.943 124.895 196.289 125.094 196.698 125.094H203.302V123.145H197.327L197.316 123.155Z" fill="white"/>
    <path d="M209.864 123.113H211.981V125.105H205.388C204.99 125.105 204.644 124.895 204.361 124.486C204.078 124.088 203.941 123.585 203.941 122.998V117.243H206.038V123.113H209.864Z" fill="white"/>
    <path d="M218.669 117.254H220.755V123.04C220.755 123.616 220.608 124.109 220.325 124.497C220.052 124.895 219.717 125.094 219.319 125.094H214.14C213.732 125.094 213.386 124.885 213.103 124.476C212.83 124.099 212.694 123.648 212.694 123.113V117.243H214.748V123.134H218.669V117.243V117.254Z" fill="white"/>
    <path fill-rule="evenodd" clip-rule="evenodd" d="M221.331 125.105L221.352 117.264H228.05C228.428 117.264 228.753 117.463 229.015 117.862C229.287 118.27 229.424 118.763 229.424 119.319V119.832C229.424 120.304 229.319 120.681 229.109 120.975C229.319 121.268 229.424 121.646 229.424 122.117V123.04C229.424 123.616 229.287 124.099 229.015 124.497C228.742 124.895 228.417 125.094 228.05 125.094H221.321L221.331 125.105ZM227.264 123.218V121.908H222.987V123.218H227.264ZM227.432 120.294V119.151H222.987V120.294H227.432Z" fill="white"/>
    </g>
    <defs>
    <clipPath id="clip0_619_2407">
    <rect width="234.832" height="160" fill="white"/>
    </clipPath>
    </defs>
    </svg>
    