<svg id="Layer_1" data-name="Layer 1" xmlns="http://www.w3.org/2000/svg" width="3.52in" height="1.63in" viewBox="0 0 253.16 117.02"><path id="ev" d="M127,36.73c17.32,43.3,26,71.49,26,71.49s8.66-28.19,26-71.49h21.92l-36.66,92.13H141.69L105.21,36.73ZM89.18,69.16c-.19-6.26-8.29-17.5-24-17.5S38.69,62.9,38.69,79.11ZM65.41,34.89c28.37,0,48.27,19.35,48.27,46.8L41.27,95.51c4.24,10.68,9.22,18,24.88,18,11.79,0,22.66-7.18,26.53-17.68l17.5,6.81c-5.89,16.4-26.16,28-44.22,28C37.4,130.7,17.51,111,17.51,82.79S37.22,34.89,65.41,34.89Z" transform="translate(-17.51 -13.68)" fill="#6ba539"/><path id="plus-green" d="M236.09,42.5h-5.76V36.73h5.76Zm0-17.29h-5.76V31h5.76Zm0-11.53h-5.76v5.77h5.76Zm11.53,57.63h-5.76v5.76h5.76Zm0-11.53h-5.76v5.77h5.76Zm0-11.52h-5.76V54h5.76ZM218.81,36.73V42.5h5.76V36.73Zm-11.53,0V42.5H213V36.73Zm57.63,11.53V54h5.76V48.26Zm-11.53,0V54h5.76V48.26Z" transform="translate(-17.51 -13.68)" fill="#6ba539"/><path id="plus-grey" d="M247.62,42.5h-5.76V36.73h5.76Zm0-17.29h-5.76V31h5.76Zm0-11.53h-5.76v5.77h5.76ZM236.09,71.31h-5.76v5.76h5.76Zm0-11.53h-5.76v5.77h5.76Zm0-11.52h-5.76V54h5.76Zm-17.28,0V54h5.76V48.26Zm-11.53,0V54H213V48.26Zm57.63-11.53V42.5h5.76V36.73Zm-11.53,0V42.5h5.76V36.73Z" transform="translate(-17.51 -13.68)" fill="#707372"/></svg>